<svg xmlns="http://www.w3.org/2000/svg" width="913" height="480" viewBox="0 0 913 480" font-family="&quot;JetBrains Mono&quot;, &quot;JetBrainsMono Nerd Font Mono&quot;, &quot;Fira Code&quot;, Menlo, Consolas, &quot;DejaVu Sans Mono&quot;, monospace" font-size="18">
<style>
.strip{animation:tcut 6.73s steps(1,end) infinite}
@keyframes tcut{0%{transform:translateX(0px)}0.5%{transform:translateX(-820.8px)}0.99%{transform:translateX(-1641.6px)}1.49%{transform:translateX(-2462.4px)}2.48%{transform:translateX(-3283.2px)}2.97%{transform:translateX(-4104px)}3.47%{transform:translateX(-4924.8px)}3.96%{transform:translateX(-5745.6px)}4.46%{transform:translateX(-6566.4px)}4.95%{transform:translateX(-7387.2px)}5.45%{transform:translateX(-8208px)}5.94%{transform:translateX(-9028.8px)}6.44%{transform:translateX(-9849.6px)}6.93%{transform:translateX(-10670.4px)}7.43%{transform:translateX(-11491.2px)}7.92%{transform:translateX(-12312px)}8.42%{transform:translateX(-13132.8px)}8.91%{transform:translateX(-13953.6px)}9.41%{transform:translateX(-14774.4px)}10.4%{transform:translateX(-15595.2px)}10.89%{transform:translateX(-16416px)}11.39%{transform:translateX(-17236.8px)}11.88%{transform:translateX(-18057.6px)}22.28%{transform:translateX(-18878.4px)}23.27%{transform:translateX(-19699.2px)}23.76%{transform:translateX(-20520px)}24.26%{transform:translateX(-21340.8px)}24.75%{transform:translateX(-22161.6px)}25.74%{transform:translateX(-22982.4px)}26.24%{transform:translateX(-23803.2px)}26.73%{transform:translateX(-24624px)}27.72%{transform:translateX(-25444.8px)}28.71%{transform:translateX(-26265.6px)}29.21%{transform:translateX(-27086.4px)}34.16%{transform:translateX(-27907.2px)}47.52%{transform:translateX(-28728px)}48.02%{transform:translateX(-29548.8px)}48.51%{transform:translateX(-30369.6px)}49.5%{transform:translateX(-31190.4px)}50%{transform:translateX(-32011.2px)}50.5%{transform:translateX(-32832px)}50.99%{transform:translateX(-33652.8px)}51.49%{transform:translateX(-34473.6px)}52.48%{transform:translateX(-35294.4px)}53.47%{transform:translateX(-36115.2px)}53.96%{transform:translateX(-36936px)}54.46%{transform:translateX(-37756.8px)}100%{transform:translateX(-37756.8px)}}
text{white-space:pre;dominant-baseline:auto}
</style>
<rect width="100%" height="100%" fill="#11111b"/>
<rect x="28" y="28" width="856.8" height="424" rx="12" fill="#1e1e2e"/>
<circle cx="52" cy="48" r="6" fill="#ff5f57"/><circle cx="72" cy="48" r="6" fill="#febc2e"/><circle cx="92" cy="48" r="6" fill="#28c840"/><text x="456.4" y="52" text-anchor="middle" font-family="-apple-system, Segoe UI, Helvetica, Arial, sans-serif" font-size="13" fill="#cdd6f4" opacity="0.7">tcut</text>
<clipPath id="term"><rect x="46" y="82" width="820.8" height="352"/></clipPath>
<g clip-path="url(#term)"><g transform="translate(46 82)"><g class="strip" xml:space="preserve">
<g transform="translate(0 0)"><text y="17.16"><tspan x="0" fill="#cdd6f4">&gt;</tspan></text><rect x="21.6" y="0" width="10.8" height="22" fill="#f5e0dc" opacity="0.85"/></g>
<g transform="translate(820.8 0)"><text y="17.16"><tspan x="0" fill="#cdd6f4">&gt; e</tspan></text><rect x="32.4" y="0" width="10.8" height="22" fill="#f5e0dc" opacity="0.85"/></g>
<g transform="translate(1641.6 0)"><text y="17.16"><tspan x="0" fill="#cdd6f4">&gt; ec</tspan></text><rect x="43.2" y="0" width="10.8" height="22" fill="#f5e0dc" opacity="0.85"/></g>
<g transform="translate(2462.4 0)"><text y="17.16"><tspan x="0" fill="#cdd6f4">&gt; echo</tspan></text><rect x="64.8" y="0" width="10.8" height="22" fill="#f5e0dc" opacity="0.85"/></g>
<g transform="translate(3283.2 0)"><text y="17.16"><tspan x="0" fill="#cdd6f4">&gt; echo</tspan></text><rect x="75.6" y="0" width="10.8" height="22" fill="#f5e0dc" opacity="0.85"/></g>
<g transform="translate(4104 0)"><text y="17.16"><tspan x="0" fill="#cdd6f4">&gt; echo '</tspan></text><rect x="86.4" y="0" width="10.8" height="22" fill="#f5e0dc" opacity="0.85"/></g>
<g transform="translate(4924.8 0)"><text y="17.16"><tspan x="0" fill="#cdd6f4">&gt; echo 'H</tspan></text><rect x="97.2" y="0" width="10.8" height="22" fill="#f5e0dc" opacity="0.85"/></g>
<g transform="translate(5745.6 0)"><text y="17.16"><tspan x="0" fill="#cdd6f4">&gt; echo 'He</tspan></text><rect x="108" y="0" width="10.8" height="22" fill="#f5e0dc" opacity="0.85"/></g>
<g transform="translate(6566.4 0)"><text y="17.16"><tspan x="0" fill="#cdd6f4">&gt; echo 'Hel</tspan></text><rect x="118.8" y="0" width="10.8" height="22" fill="#f5e0dc" opacity="0.85"/></g>
<g transform="translate(7387.2 0)"><text y="17.16"><tspan x="0" fill="#cdd6f4">&gt; echo 'Hell</tspan></text><rect x="129.6" y="0" width="10.8" height="22" fill="#f5e0dc" opacity="0.85"/></g>
<g transform="translate(8208 0)"><text y="17.16"><tspan x="0" fill="#cdd6f4">&gt; echo 'Hello</tspan></text><rect x="140.4" y="0" width="10.8" height="22" fill="#f5e0dc" opacity="0.85"/></g>
<g transform="translate(9028.8 0)"><text y="17.16"><tspan x="0" fill="#cdd6f4">&gt; echo 'Hello</tspan></text><rect x="151.2" y="0" width="10.8" height="22" fill="#f5e0dc" opacity="0.85"/></g>
<g transform="translate(9849.6 0)"><text y="17.16"><tspan x="0" fill="#cdd6f4">&gt; echo 'Hello f</tspan></text><rect x="162" y="0" width="10.8" height="22" fill="#f5e0dc" opacity="0.85"/></g>
<g transform="translate(10670.4 0)"><text y="17.16"><tspan x="0" fill="#cdd6f4">&gt; echo 'Hello fr</tspan></text><rect x="172.8" y="0" width="10.8" height="22" fill="#f5e0dc" opacity="0.85"/></g>
<g transform="translate(11491.2 0)"><text y="17.16"><tspan x="0" fill="#cdd6f4">&gt; echo 'Hello fro</tspan></text><rect x="183.6" y="0" width="10.8" height="22" fill="#f5e0dc" opacity="0.85"/></g>
<g transform="translate(12312 0)"><text y="17.16"><tspan x="0" fill="#cdd6f4">&gt; echo 'Hello from</tspan></text><rect x="194.4" y="0" width="10.8" height="22" fill="#f5e0dc" opacity="0.85"/></g>
<g transform="translate(13132.8 0)"><text y="17.16"><tspan x="0" fill="#cdd6f4">&gt; echo 'Hello from t</tspan></text><rect x="216" y="0" width="10.8" height="22" fill="#f5e0dc" opacity="0.85"/></g>
<g transform="translate(13953.6 0)"><text y="17.16"><tspan x="0" fill="#cdd6f4">&gt; echo 'Hello from tc</tspan></text><rect x="226.8" y="0" width="10.8" height="22" fill="#f5e0dc" opacity="0.85"/></g>
<g transform="translate(14774.4 0)"><text y="17.16"><tspan x="0" fill="#cdd6f4">&gt; echo 'Hello from tcu</tspan></text><rect x="237.6" y="0" width="10.8" height="22" fill="#f5e0dc" opacity="0.85"/></g>
<g transform="translate(15595.2 0)"><text y="17.16"><tspan x="0" fill="#cdd6f4">&gt; echo 'Hello from tcut</tspan></text><rect x="259.2" y="0" width="10.8" height="22" fill="#f5e0dc" opacity="0.85"/></g>
<g transform="translate(16416 0)"><text y="17.16"><tspan x="0" fill="#cdd6f4">&gt; echo 'Hello from tcut 👋</tspan></text><rect x="280.8" y="0" width="10.8" height="22" fill="#f5e0dc" opacity="0.85"/></g>
<g transform="translate(17236.8 0)"><text y="17.16"><tspan x="0" fill="#cdd6f4">&gt; echo 'Hello from tcut 👋'</tspan></text><rect x="291.6" y="0" width="10.8" height="22" fill="#f5e0dc" opacity="0.85"/></g>
<g transform="translate(18057.6 0)"><text y="17.16"><tspan x="0" fill="#cdd6f4">&gt; echo 'Hello from tcut 👋'</tspan></text><text y="39.16"><tspan x="0" fill="#cdd6f4">Hello from tcut 👋</tspan></text><text y="61.16"><tspan x="0" fill="#cdd6f4">&gt;</tspan></text><rect x="21.6" y="44" width="10.8" height="22" fill="#f5e0dc" opacity="0.85"/></g>
<g transform="translate(18878.4 0)"><text y="17.16"><tspan x="0" fill="#cdd6f4">&gt; echo 'Hello from tcut 👋'</tspan></text><text y="39.16"><tspan x="0" fill="#cdd6f4">Hello from tcut 👋</tspan></text><text y="61.16"><tspan x="0" fill="#cdd6f4">&gt; c</tspan></text><rect x="32.4" y="44" width="10.8" height="22" fill="#f5e0dc" opacity="0.85"/></g>
<g transform="translate(19699.2 0)"><text y="17.16"><tspan x="0" fill="#cdd6f4">&gt; echo 'Hello from tcut 👋'</tspan></text><text y="39.16"><tspan x="0" fill="#cdd6f4">Hello from tcut 👋</tspan></text><text y="61.16"><tspan x="0" fill="#cdd6f4">&gt; ca</tspan></text><rect x="43.2" y="44" width="10.8" height="22" fill="#f5e0dc" opacity="0.85"/></g>
<g transform="translate(20520 0)"><text y="17.16"><tspan x="0" fill="#cdd6f4">&gt; echo 'Hello from tcut 👋'</tspan></text><text y="39.16"><tspan x="0" fill="#cdd6f4">Hello from tcut 👋</tspan></text><text y="61.16"><tspan x="0" fill="#cdd6f4">&gt; cat</tspan></text><rect x="54" y="44" width="10.8" height="22" fill="#f5e0dc" opacity="0.85"/></g>
<g transform="translate(21340.8 0)"><text y="17.16"><tspan x="0" fill="#cdd6f4">&gt; echo 'Hello from tcut 👋'</tspan></text><text y="39.16"><tspan x="0" fill="#cdd6f4">Hello from tcut 👋</tspan></text><text y="61.16"><tspan x="0" fill="#cdd6f4">&gt; cat</tspan></text><rect x="64.8" y="44" width="10.8" height="22" fill="#f5e0dc" opacity="0.85"/></g>
<g transform="translate(22161.6 0)"><text y="17.16"><tspan x="0" fill="#cdd6f4">&gt; echo 'Hello from tcut 👋'</tspan></text><text y="39.16"><tspan x="0" fill="#cdd6f4">Hello from tcut 👋</tspan></text><text y="61.16"><tspan x="0" fill="#cdd6f4">&gt; cat R</tspan></text><rect x="75.6" y="44" width="10.8" height="22" fill="#f5e0dc" opacity="0.85"/></g>
<g transform="translate(22982.4 0)"><text y="17.16"><tspan x="0" fill="#cdd6f4">&gt; echo 'Hello from tcut 👋'</tspan></text><text y="39.16"><tspan x="0" fill="#cdd6f4">Hello from tcut 👋</tspan></text><text y="61.16"><tspan x="0" fill="#cdd6f4">&gt; cat RE</tspan></text><rect x="86.4" y="44" width="10.8" height="22" fill="#f5e0dc" opacity="0.85"/></g>
<g transform="translate(23803.2 0)"><text y="17.16"><tspan x="0" fill="#cdd6f4">&gt; echo 'Hello from tcut 👋'</tspan></text><text y="39.16"><tspan x="0" fill="#cdd6f4">Hello from tcut 👋</tspan></text><text y="61.16"><tspan x="0" fill="#cdd6f4">&gt; cat READ</tspan></text><rect x="108" y="44" width="10.8" height="22" fill="#f5e0dc" opacity="0.85"/></g>
<g transform="translate(24624 0)"><text y="17.16"><tspan x="0" fill="#cdd6f4">&gt; echo 'Hello from tcut 👋'</tspan></text><text y="39.16"><tspan x="0" fill="#cdd6f4">Hello from tcut 👋</tspan></text><text y="61.16"><tspan x="0" fill="#cdd6f4">&gt; cat READM</tspan></text><rect x="118.8" y="44" width="10.8" height="22" fill="#f5e0dc" opacity="0.85"/></g>
<g transform="translate(25444.8 0)"><text y="17.16"><tspan x="0" fill="#cdd6f4">&gt; echo 'Hello from tcut 👋'</tspan></text><text y="39.16"><tspan x="0" fill="#cdd6f4">Hello from tcut 👋</tspan></text><text y="61.16"><tspan x="0" fill="#cdd6f4">&gt; cat README.</tspan></text><rect x="140.4" y="44" width="10.8" height="22" fill="#f5e0dc" opacity="0.85"/></g>
<g transform="translate(26265.6 0)"><text y="17.16"><tspan x="0" fill="#cdd6f4">&gt; echo 'Hello from tcut 👋'</tspan></text><text y="39.16"><tspan x="0" fill="#cdd6f4">Hello from tcut 👋</tspan></text><text y="61.16"><tspan x="0" fill="#cdd6f4">&gt; cat README.m</tspan></text><rect x="151.2" y="44" width="10.8" height="22" fill="#f5e0dc" opacity="0.85"/></g>
<g transform="translate(27086.4 0)"><text y="17.16"><tspan x="0" fill="#cdd6f4">&gt; echo 'Hello from tcut 👋'</tspan></text><text y="39.16"><tspan x="0" fill="#cdd6f4">Hello from tcut 👋</tspan></text><text y="61.16"><tspan x="0" fill="#cdd6f4">&gt; cat README.md</tspan></text><rect x="162" y="44" width="10.8" height="22" fill="#f5e0dc" opacity="0.85"/></g>
<g transform="translate(27907.2 0)"><text y="17.16"><tspan x="0" fill="#cdd6f4">&gt; echo 'Hello from tcut 👋'</tspan></text><text y="39.16"><tspan x="0" fill="#cdd6f4">Hello from tcut 👋</tspan></text><text y="61.16"><tspan x="0" fill="#cdd6f4">&gt; cat README.md</tspan></text><text y="83.16"><tspan x="0" fill="#cdd6f4"># tcut</tspan></text><text y="127.16"><tspan x="0" fill="#cdd6f4">Terminal videos as code.</tspan></text><text y="149.16"><tspan x="0" fill="#cdd6f4">&gt;</tspan></text><rect x="21.6" y="132" width="10.8" height="22" fill="#f5e0dc" opacity="0.85"/></g>
<g transform="translate(28728 0)"><text y="17.16"><tspan x="0" fill="#cdd6f4">&gt; echo 'Hello from tcut 👋'</tspan></text><text y="39.16"><tspan x="0" fill="#cdd6f4">Hello from tcut 👋</tspan></text><text y="61.16"><tspan x="0" fill="#cdd6f4">&gt; cat README.md</tspan></text><text y="83.16"><tspan x="0" fill="#cdd6f4"># tcut</tspan></text><text y="127.16"><tspan x="0" fill="#cdd6f4">Terminal videos as code.</tspan></text><text y="149.16"><tspan x="0" fill="#cdd6f4">&gt; b</tspan></text><rect x="32.4" y="132" width="10.8" height="22" fill="#f5e0dc" opacity="0.85"/></g>
<g transform="translate(29548.8 0)"><text y="17.16"><tspan x="0" fill="#cdd6f4">&gt; echo 'Hello from tcut 👋'</tspan></text><text y="39.16"><tspan x="0" fill="#cdd6f4">Hello from tcut 👋</tspan></text><text y="61.16"><tspan x="0" fill="#cdd6f4">&gt; cat README.md</tspan></text><text y="83.16"><tspan x="0" fill="#cdd6f4"># tcut</tspan></text><text y="127.16"><tspan x="0" fill="#cdd6f4">Terminal videos as code.</tspan></text><text y="149.16"><tspan x="0" fill="#cdd6f4">&gt; bu</tspan></text><rect x="43.2" y="132" width="10.8" height="22" fill="#f5e0dc" opacity="0.85"/></g>
<g transform="translate(30369.6 0)"><text y="17.16"><tspan x="0" fill="#cdd6f4">&gt; echo 'Hello from tcut 👋'</tspan></text><text y="39.16"><tspan x="0" fill="#cdd6f4">Hello from tcut 👋</tspan></text><text y="61.16"><tspan x="0" fill="#cdd6f4">&gt; cat README.md</tspan></text><text y="83.16"><tspan x="0" fill="#cdd6f4"># tcut</tspan></text><text y="127.16"><tspan x="0" fill="#cdd6f4">Terminal videos as code.</tspan></text><text y="149.16"><tspan x="0" fill="#cdd6f4">&gt; bun</tspan></text><rect x="54" y="132" width="10.8" height="22" fill="#f5e0dc" opacity="0.85"/></g>
<g transform="translate(31190.4 0)"><text y="17.16"><tspan x="0" fill="#cdd6f4">&gt; echo 'Hello from tcut 👋'</tspan></text><text y="39.16"><tspan x="0" fill="#cdd6f4">Hello from tcut 👋</tspan></text><text y="61.16"><tspan x="0" fill="#cdd6f4">&gt; cat README.md</tspan></text><text y="83.16"><tspan x="0" fill="#cdd6f4"># tcut</tspan></text><text y="127.16"><tspan x="0" fill="#cdd6f4">Terminal videos as code.</tspan></text><text y="149.16"><tspan x="0" fill="#cdd6f4">&gt; bun</tspan></text><rect x="64.8" y="132" width="10.8" height="22" fill="#f5e0dc" opacity="0.85"/></g>
<g transform="translate(32011.2 0)"><text y="17.16"><tspan x="0" fill="#cdd6f4">&gt; echo 'Hello from tcut 👋'</tspan></text><text y="39.16"><tspan x="0" fill="#cdd6f4">Hello from tcut 👋</tspan></text><text y="61.16"><tspan x="0" fill="#cdd6f4">&gt; cat README.md</tspan></text><text y="83.16"><tspan x="0" fill="#cdd6f4"># tcut</tspan></text><text y="127.16"><tspan x="0" fill="#cdd6f4">Terminal videos as code.</tspan></text><text y="149.16"><tspan x="0" fill="#cdd6f4">&gt; bun -</tspan></text><rect x="75.6" y="132" width="10.8" height="22" fill="#f5e0dc" opacity="0.85"/></g>
<g transform="translate(32832 0)"><text y="17.16"><tspan x="0" fill="#cdd6f4">&gt; echo 'Hello from tcut 👋'</tspan></text><text y="39.16"><tspan x="0" fill="#cdd6f4">Hello from tcut 👋</tspan></text><text y="61.16"><tspan x="0" fill="#cdd6f4">&gt; cat README.md</tspan></text><text y="83.16"><tspan x="0" fill="#cdd6f4"># tcut</tspan></text><text y="127.16"><tspan x="0" fill="#cdd6f4">Terminal videos as code.</tspan></text><text y="149.16"><tspan x="0" fill="#cdd6f4">&gt; bun --</tspan></text><rect x="86.4" y="132" width="10.8" height="22" fill="#f5e0dc" opacity="0.85"/></g>
<g transform="translate(33652.8 0)"><text y="17.16"><tspan x="0" fill="#cdd6f4">&gt; echo 'Hello from tcut 👋'</tspan></text><text y="39.16"><tspan x="0" fill="#cdd6f4">Hello from tcut 👋</tspan></text><text y="61.16"><tspan x="0" fill="#cdd6f4">&gt; cat README.md</tspan></text><text y="83.16"><tspan x="0" fill="#cdd6f4"># tcut</tspan></text><text y="127.16"><tspan x="0" fill="#cdd6f4">Terminal videos as code.</tspan></text><text y="149.16"><tspan x="0" fill="#cdd6f4">&gt; bun --ve</tspan></text><rect x="108" y="132" width="10.8" height="22" fill="#f5e0dc" opacity="0.85"/></g>
<g transform="translate(34473.6 0)"><text y="17.16"><tspan x="0" fill="#cdd6f4">&gt; echo 'Hello from tcut 👋'</tspan></text><text y="39.16"><tspan x="0" fill="#cdd6f4">Hello from tcut 👋</tspan></text><text y="61.16"><tspan x="0" fill="#cdd6f4">&gt; cat README.md</tspan></text><text y="83.16"><tspan x="0" fill="#cdd6f4"># tcut</tspan></text><text y="127.16"><tspan x="0" fill="#cdd6f4">Terminal videos as code.</tspan></text><text y="149.16"><tspan x="0" fill="#cdd6f4">&gt; bun --ver</tspan></text><rect x="118.8" y="132" width="10.8" height="22" fill="#f5e0dc" opacity="0.85"/></g>
<g transform="translate(35294.4 0)"><text y="17.16"><tspan x="0" fill="#cdd6f4">&gt; echo 'Hello from tcut 👋'</tspan></text><text y="39.16"><tspan x="0" fill="#cdd6f4">Hello from tcut 👋</tspan></text><text y="61.16"><tspan x="0" fill="#cdd6f4">&gt; cat README.md</tspan></text><text y="83.16"><tspan x="0" fill="#cdd6f4"># tcut</tspan></text><text y="127.16"><tspan x="0" fill="#cdd6f4">Terminal videos as code.</tspan></text><text y="149.16"><tspan x="0" fill="#cdd6f4">&gt; bun --versi</tspan></text><rect x="140.4" y="132" width="10.8" height="22" fill="#f5e0dc" opacity="0.85"/></g>
<g transform="translate(36115.2 0)"><text y="17.16"><tspan x="0" fill="#cdd6f4">&gt; echo 'Hello from tcut 👋'</tspan></text><text y="39.16"><tspan x="0" fill="#cdd6f4">Hello from tcut 👋</tspan></text><text y="61.16"><tspan x="0" fill="#cdd6f4">&gt; cat README.md</tspan></text><text y="83.16"><tspan x="0" fill="#cdd6f4"># tcut</tspan></text><text y="127.16"><tspan x="0" fill="#cdd6f4">Terminal videos as code.</tspan></text><text y="149.16"><tspan x="0" fill="#cdd6f4">&gt; bun --versio</tspan></text><rect x="151.2" y="132" width="10.8" height="22" fill="#f5e0dc" opacity="0.85"/></g>
<g transform="translate(36936 0)"><text y="17.16"><tspan x="0" fill="#cdd6f4">&gt; echo 'Hello from tcut 👋'</tspan></text><text y="39.16"><tspan x="0" fill="#cdd6f4">Hello from tcut 👋</tspan></text><text y="61.16"><tspan x="0" fill="#cdd6f4">&gt; cat README.md</tspan></text><text y="83.16"><tspan x="0" fill="#cdd6f4"># tcut</tspan></text><text y="127.16"><tspan x="0" fill="#cdd6f4">Terminal videos as code.</tspan></text><text y="149.16"><tspan x="0" fill="#cdd6f4">&gt; bun --version</tspan></text><rect x="162" y="132" width="10.8" height="22" fill="#f5e0dc" opacity="0.85"/></g>
<g transform="translate(37756.8 0)"><text y="17.16"><tspan x="0" fill="#cdd6f4">&gt; echo 'Hello from tcut 👋'</tspan></text><text y="39.16"><tspan x="0" fill="#cdd6f4">Hello from tcut 👋</tspan></text><text y="61.16"><tspan x="0" fill="#cdd6f4">&gt; cat README.md</tspan></text><text y="83.16"><tspan x="0" fill="#cdd6f4"># tcut</tspan></text><text y="127.16"><tspan x="0" fill="#cdd6f4">Terminal videos as code.</tspan></text><text y="149.16"><tspan x="0" fill="#cdd6f4">&gt; bun --version</tspan></text><text y="171.16"><tspan x="0" fill="#cdd6f4">1.4.0</tspan></text><text y="193.16"><tspan x="0" fill="#cdd6f4">&gt;</tspan></text><rect x="21.6" y="176" width="10.8" height="22" fill="#f5e0dc" opacity="0.85"/></g>
</g></g></g>
</svg>
